<svg xmlns="http://www.w3.org/2000/svg" xmlns:xlink="http://www.w3.org/1999/xlink" width="200" zoomAndPan="magnify" viewBox="0 0 150 74.999997" height="100" preserveAspectRatio="xMidYMid meet" version="1.0"><defs><g/><clipPath id="bc1f20aecd"><path d="M 15 29 L 32 29 L 32 45.980469 L 15 45.980469 Z M 15 29 " clip-rule="nonzero"/></clipPath><clipPath id="fbb009cb8e"><path d="M 23 21.230469 L 88.5 21.230469 L 88.5 45.980469 L 23 45.980469 Z M 23 21.230469 " clip-rule="nonzero"/></clipPath><clipPath id="5252eae8e0"><path d="M 7.5 21.230469 L 37 21.230469 L 37 45.980469 L 7.5 45.980469 Z M 7.5 21.230469 " clip-rule="nonzero"/></clipPath></defs><g clip-path="url(#bc1f20aecd)"><path fill="#918f8f" d="M 15.699219 45.292969 L 28.925781 29.910156 L 31.128906 32.527344 L 28.960938 31.253906 L 15.699219 45.292969 " fill-opacity="1" fill-rule="nonzero"/></g><path fill="#918f8f" d="M 32.953125 43.976562 L 45.046875 29.910156 L 48.636719 34.261719 L 45.085938 31.253906 L 32.953125 43.976562 " fill-opacity="1" fill-rule="nonzero"/><g clip-path="url(#fbb009cb8e)"><path fill="#ff1616" d="M 55.023438 32.765625 L 45.078125 21.234375 L 23.726562 45.984375 L 36.316406 45.984375 L 30.328125 44.734375 L 45.078125 27.632812 L 50.988281 34.492188 L 88.441406 34.492188 L 55.023438 32.765625 " fill-opacity="1" fill-rule="nonzero"/></g><g clip-path="url(#5252eae8e0)"><path fill="#000000" d="M 28.910156 21.234375 L 23.726562 27.242188 L 23.726562 25.214844 L 20.761719 25.214844 L 18.851562 28.289062 L 20.761719 27.242188 L 20.761719 30.679688 L 7.5625 45.984375 L 13.082031 45.984375 L 28.910156 27.636719 L 33.164062 32.566406 L 36.996094 30.601562 L 28.910156 21.234375 " fill-opacity="1" fill-rule="nonzero"/></g><g fill="#000000" fill-opacity="1"><g transform="translate(57.50084, 42.834218)"><g><path d="M 0.9375 -5.765625 L 1.546875 -5.765625 L 1.546875 -0.53125 L 4.78125 -0.53125 L 4.78125 0 L 0.9375 0 Z M 0.9375 -5.765625 "/></g></g></g><g fill="#000000" fill-opacity="1"><g transform="translate(62.349752, 42.834218)"><g><path d="M 0.9375 -5.765625 L 1.546875 -5.765625 L 1.546875 0 L 0.9375 0 Z M 0.9375 -5.765625 "/></g></g></g><g fill="#000000" fill-opacity="1"><g transform="translate(64.835948, 42.834218)"><g><path d="M 5.75 -5.765625 L 5.75 0 L 5.25 0 L 1.546875 -4.671875 L 1.546875 0 L 0.9375 0 L 0.9375 -5.765625 L 1.4375 -5.765625 L 5.15625 -1.09375 L 5.15625 -5.765625 Z M 5.75 -5.765625 "/></g></g></g><g fill="#000000" fill-opacity="1"><g transform="translate(71.528927, 42.834218)"><g><path d="M 2.71875 -2.703125 L 1.546875 -1.515625 L 1.546875 0 L 0.9375 0 L 0.9375 -5.765625 L 1.546875 -5.765625 L 1.546875 -2.28125 L 4.9375 -5.765625 L 5.625 -5.765625 L 3.140625 -3.15625 L 5.8125 0 L 5.078125 0 Z M 2.71875 -2.703125 "/></g></g></g><g fill="#000000" fill-opacity="1"><g transform="translate(77.382193, 42.834218)"><g><path d="M 2.53125 0.046875 C 2.101562 0.046875 1.691406 -0.0195312 1.296875 -0.15625 C 0.898438 -0.289062 0.597656 -0.472656 0.390625 -0.703125 L 0.625 -1.171875 C 0.832031 -0.960938 1.109375 -0.789062 1.453125 -0.65625 C 1.796875 -0.53125 2.15625 -0.46875 2.53125 -0.46875 C 3.039062 -0.46875 3.425781 -0.5625 3.6875 -0.75 C 3.945312 -0.9375 4.078125 -1.179688 4.078125 -1.484375 C 4.078125 -1.722656 4.003906 -1.910156 3.859375 -2.046875 C 3.722656 -2.179688 3.550781 -2.285156 3.34375 -2.359375 C 3.144531 -2.429688 2.863281 -2.515625 2.5 -2.609375 C 2.070312 -2.710938 1.726562 -2.816406 1.46875 -2.921875 C 1.207031 -3.023438 0.984375 -3.179688 0.796875 -3.390625 C 0.617188 -3.597656 0.53125 -3.878906 0.53125 -4.234375 C 0.53125 -4.523438 0.601562 -4.789062 0.75 -5.03125 C 0.90625 -5.269531 1.140625 -5.457031 1.453125 -5.59375 C 1.773438 -5.738281 2.175781 -5.8125 2.65625 -5.8125 C 2.976562 -5.8125 3.296875 -5.765625 3.609375 -5.671875 C 3.929688 -5.585938 4.207031 -5.460938 4.4375 -5.296875 L 4.234375 -4.8125 C 3.992188 -4.976562 3.734375 -5.097656 3.453125 -5.171875 C 3.179688 -5.253906 2.914062 -5.296875 2.65625 -5.296875 C 2.144531 -5.296875 1.757812 -5.195312 1.5 -5 C 1.25 -4.800781 1.125 -4.550781 1.125 -4.25 C 1.125 -4.019531 1.191406 -3.832031 1.328125 -3.6875 C 1.472656 -3.550781 1.648438 -3.445312 1.859375 -3.375 C 2.078125 -3.300781 2.363281 -3.21875 2.71875 -3.125 C 3.132812 -3.019531 3.472656 -2.914062 3.734375 -2.8125 C 4.003906 -2.71875 4.226562 -2.566406 4.40625 -2.359375 C 4.582031 -2.148438 4.671875 -1.867188 4.671875 -1.515625 C 4.671875 -1.234375 4.59375 -0.972656 4.4375 -0.734375 C 4.28125 -0.492188 4.039062 -0.300781 3.71875 -0.15625 C 3.394531 -0.0195312 3 0.046875 2.53125 0.046875 Z M 2.53125 0.046875 "/></g></g></g><g fill="#ff1616" fill-opacity="1"><g transform="translate(83.841829, 43.520251)"><g><path d="M 0.75 -5.765625 L 3.265625 -5.765625 C 3.859375 -5.765625 4.328125 -5.632812 4.671875 -5.375 C 5.023438 -5.125 5.203125 -4.773438 5.203125 -4.328125 C 5.203125 -4.003906 5.109375 -3.726562 4.921875 -3.5 C 4.742188 -3.269531 4.5 -3.113281 4.1875 -3.03125 C 4.570312 -2.96875 4.875 -2.804688 5.09375 -2.546875 C 5.3125 -2.296875 5.421875 -1.972656 5.421875 -1.578125 C 5.421875 -1.085938 5.234375 -0.703125 4.859375 -0.421875 C 4.484375 -0.140625 3.96875 0 3.3125 0 L 0.75 0 Z M 1.734375 -4.90625 L 1.734375 -3.375 L 3.21875 -3.375 C 3.519531 -3.375 3.757812 -3.441406 3.9375 -3.578125 C 4.113281 -3.710938 4.203125 -3.898438 4.203125 -4.140625 C 4.203125 -4.390625 4.113281 -4.578125 3.9375 -4.703125 C 3.769531 -4.835938 3.53125 -4.90625 3.21875 -4.90625 Z M 1.734375 -2.515625 L 1.734375 -0.859375 L 3.21875 -0.859375 C 3.59375 -0.859375 3.882812 -0.929688 4.09375 -1.078125 C 4.3125 -1.222656 4.421875 -1.429688 4.421875 -1.703125 C 4.421875 -1.953125 4.3125 -2.148438 4.09375 -2.296875 C 3.882812 -2.441406 3.59375 -2.515625 3.21875 -2.515625 Z M 1.734375 -2.515625 "/></g></g></g><g fill="#ff1616" fill-opacity="1"><g transform="translate(89.653934, 43.520251)"><g><path d="M 5.65625 -5.765625 L 5.65625 -2.390625 C 5.65625 -1.640625 5.429688 -1.046875 4.984375 -0.609375 C 4.546875 -0.171875 3.9375 0.046875 3.15625 0.046875 C 2.375 0.046875 1.757812 -0.171875 1.3125 -0.609375 C 0.863281 -1.046875 0.640625 -1.640625 0.640625 -2.390625 L 0.640625 -5.765625 L 1.609375 -5.765625 L 1.609375 -2.390625 C 1.609375 -1.898438 1.75 -1.515625 2.03125 -1.234375 C 2.3125 -0.960938 2.6875 -0.828125 3.15625 -0.828125 C 3.632812 -0.828125 4.007812 -0.960938 4.28125 -1.234375 C 4.550781 -1.515625 4.6875 -1.898438 4.6875 -2.390625 L 4.6875 -5.765625 Z M 5.65625 -5.765625 "/></g></g></g><g fill="#ff1616" fill-opacity="1"><g transform="translate(95.943518, 43.520251)"><g><path d="M 1.734375 0 L 0.75 0 L 0.75 -5.765625 L 1.734375 -5.765625 Z M 1.734375 0 "/></g></g></g><g fill="#ff1616" fill-opacity="1"><g transform="translate(98.429714, 43.520251)"><g><path d="M 1.734375 -0.875 L 4.21875 -0.875 L 4.21875 0 L 0.75 0 L 0.75 -5.765625 L 1.734375 -5.765625 Z M 1.734375 -0.875 "/></g></g></g><g fill="#ff1616" fill-opacity="1"><g transform="translate(102.825842, 43.520251)"><g><path d="M 0.75 -5.765625 L 3.125 -5.765625 C 3.976562 -5.765625 4.6875 -5.492188 5.25 -4.953125 C 5.820312 -4.410156 6.109375 -3.71875 6.109375 -2.875 C 6.109375 -2.039062 5.820312 -1.351562 5.25 -0.8125 C 4.6875 -0.269531 3.96875 0 3.09375 0 L 0.75 0 Z M 1.734375 -4.890625 L 1.734375 -0.875 L 3.140625 -0.875 C 3.710938 -0.875 4.1875 -1.0625 4.5625 -1.4375 C 4.9375 -1.8125 5.125 -2.289062 5.125 -2.875 C 5.125 -3.457031 4.925781 -3.9375 4.53125 -4.3125 C 4.144531 -4.695312 3.671875 -4.890625 3.109375 -4.890625 Z M 1.734375 -4.890625 "/></g></g></g><g fill="#ff1616" fill-opacity="1"><g transform="translate(109.205984, 43.520251)"><g><path d="M 4.875 -4.890625 L 1.734375 -4.890625 L 1.734375 -3.328125 L 4.546875 -3.328125 L 4.546875 -2.46875 L 1.734375 -2.46875 L 1.734375 -0.875 L 4.96875 -0.875 L 4.96875 0 L 0.75 0 L 0.75 -5.765625 L 4.875 -5.765625 Z M 4.875 -4.890625 "/></g></g></g><g fill="#ff1616" fill-opacity="1"><g transform="translate(114.606466, 43.520251)"><g><path d="M 4.40625 0 L 3.359375 -1.75 C 3.304688 -1.738281 3.21875 -1.734375 3.09375 -1.734375 L 1.734375 -1.734375 L 1.734375 0 L 0.75 0 L 0.75 -5.765625 L 3.09375 -5.765625 C 3.832031 -5.765625 4.40625 -5.59375 4.8125 -5.25 C 5.21875 -4.90625 5.421875 -4.421875 5.421875 -3.796875 C 5.421875 -3.335938 5.316406 -2.945312 5.109375 -2.625 C 4.898438 -2.3125 4.601562 -2.078125 4.21875 -1.921875 L 5.515625 0 Z M 1.734375 -2.609375 L 3.09375 -2.609375 C 4.03125 -2.609375 4.5 -2.992188 4.5 -3.765625 C 4.5 -4.515625 4.03125 -4.890625 3.09375 -4.890625 L 1.734375 -4.890625 Z M 1.734375 -2.609375 "/></g></g></g><g fill="#ff1616" fill-opacity="1"><g transform="translate(120.558518, 43.520251)"><g><path d="M 2.65625 -5.8125 C 3.394531 -5.8125 4.066406 -5.613281 4.671875 -5.21875 L 4.265625 -4.359375 C 3.679688 -4.710938 3.117188 -4.890625 2.578125 -4.890625 C 2.285156 -4.890625 2.054688 -4.835938 1.890625 -4.734375 C 1.722656 -4.628906 1.640625 -4.476562 1.640625 -4.28125 C 1.640625 -4.09375 1.710938 -3.929688 1.859375 -3.796875 C 2.015625 -3.660156 2.207031 -3.5625 2.4375 -3.5 C 2.675781 -3.4375 2.925781 -3.359375 3.1875 -3.265625 C 3.457031 -3.171875 3.707031 -3.066406 3.9375 -2.953125 C 4.175781 -2.847656 4.367188 -2.679688 4.515625 -2.453125 C 4.671875 -2.222656 4.75 -1.945312 4.75 -1.625 C 4.75 -1.125 4.546875 -0.722656 4.140625 -0.421875 C 3.734375 -0.117188 3.207031 0.03125 2.5625 0.03125 C 2.125 0.03125 1.695312 -0.0507812 1.28125 -0.21875 C 0.875 -0.382812 0.519531 -0.601562 0.21875 -0.875 L 0.640625 -1.71875 C 0.929688 -1.445312 1.25 -1.238281 1.59375 -1.09375 C 1.9375 -0.945312 2.265625 -0.875 2.578125 -0.875 C 2.921875 -0.875 3.1875 -0.9375 3.375 -1.0625 C 3.570312 -1.1875 3.671875 -1.359375 3.671875 -1.578125 C 3.671875 -1.773438 3.59375 -1.941406 3.4375 -2.078125 C 3.28125 -2.210938 3.085938 -2.3125 2.859375 -2.375 C 2.628906 -2.4375 2.378906 -2.507812 2.109375 -2.59375 C 1.835938 -2.6875 1.585938 -2.785156 1.359375 -2.890625 C 1.128906 -2.992188 0.9375 -3.15625 0.78125 -3.375 C 0.625 -3.601562 0.546875 -3.878906 0.546875 -4.203125 C 0.546875 -4.691406 0.738281 -5.082031 1.125 -5.375 C 1.507812 -5.664062 2.019531 -5.8125 2.65625 -5.8125 Z M 2.65625 -5.8125 "/></g></g></g><g fill="#4f4c4c" fill-opacity="1"><g transform="translate(47.920917, 48.593107)"><g><path d="M 1.625 0.03125 C 1.351562 0.03125 1.109375 -0.0234375 0.890625 -0.140625 C 0.671875 -0.265625 0.5 -0.429688 0.375 -0.640625 C 0.25 -0.859375 0.1875 -1.09375 0.1875 -1.34375 C 0.1875 -1.601562 0.25 -1.835938 0.375 -2.046875 C 0.5 -2.265625 0.671875 -2.429688 0.890625 -2.546875 C 1.109375 -2.671875 1.351562 -2.734375 1.625 -2.734375 C 1.894531 -2.734375 2.140625 -2.671875 2.359375 -2.546875 C 2.578125 -2.429688 2.75 -2.269531 2.875 -2.0625 C 3 -1.851562 3.0625 -1.613281 3.0625 -1.34375 C 3.0625 -1.082031 3 -0.847656 2.875 -0.640625 C 2.75 -0.429688 2.578125 -0.265625 2.359375 -0.140625 C 2.140625 -0.0234375 1.894531 0.03125 1.625 0.03125 Z M 1.625 -0.3125 C 1.820312 -0.3125 2 -0.351562 2.15625 -0.4375 C 2.3125 -0.53125 2.4375 -0.65625 2.53125 -0.8125 C 2.625 -0.976562 2.671875 -1.15625 2.671875 -1.34375 C 2.671875 -1.539062 2.625 -1.71875 2.53125 -1.875 C 2.4375 -2.039062 2.3125 -2.164062 2.15625 -2.25 C 2 -2.34375 1.820312 -2.390625 1.625 -2.390625 C 1.425781 -2.390625 1.242188 -2.34375 1.078125 -2.25 C 0.921875 -2.164062 0.796875 -2.039062 0.703125 -1.875 C 0.617188 -1.71875 0.578125 -1.539062 0.578125 -1.34375 C 0.578125 -1.15625 0.617188 -0.976562 0.703125 -0.8125 C 0.796875 -0.65625 0.921875 -0.53125 1.078125 -0.4375 C 1.242188 -0.351562 1.425781 -0.3125 1.625 -0.3125 Z M 1.625 -0.3125 "/></g></g></g><g fill="#4f4c4c" fill-opacity="1"><g transform="translate(51.765051, 48.593107)"><g><path d="M 1.53125 0.03125 C 1.164062 0.03125 0.878906 -0.0703125 0.671875 -0.28125 C 0.472656 -0.488281 0.375 -0.785156 0.375 -1.171875 L 0.375 -2.703125 L 0.765625 -2.703125 L 0.765625 -1.1875 C 0.765625 -0.601562 1.019531 -0.3125 1.53125 -0.3125 C 1.78125 -0.3125 1.96875 -0.378906 2.09375 -0.515625 C 2.226562 -0.660156 2.296875 -0.882812 2.296875 -1.1875 L 2.296875 -2.703125 L 2.671875 -2.703125 L 2.671875 -1.171875 C 2.671875 -0.773438 2.566406 -0.472656 2.359375 -0.265625 C 2.160156 -0.0664062 1.882812 0.03125 1.53125 0.03125 Z M 1.53125 0.03125 "/></g></g></g><g fill="#4f4c4c" fill-opacity="1"><g transform="translate(55.420064, 48.593107)"><g><path d="M 2.21875 0 L 1.625 -0.828125 C 1.550781 -0.828125 1.492188 -0.828125 1.453125 -0.828125 L 0.796875 -0.828125 L 0.796875 0 L 0.40625 0 L 0.40625 -2.703125 L 1.453125 -2.703125 C 1.804688 -2.703125 2.082031 -2.617188 2.28125 -2.453125 C 2.476562 -2.285156 2.578125 -2.054688 2.578125 -1.765625 C 2.578125 -1.554688 2.523438 -1.375 2.421875 -1.21875 C 2.328125 -1.070312 2.179688 -0.96875 1.984375 -0.90625 L 2.625 0 Z M 1.453125 -1.15625 C 1.691406 -1.15625 1.875 -1.207031 2 -1.3125 C 2.132812 -1.414062 2.203125 -1.566406 2.203125 -1.765625 C 2.203125 -1.953125 2.132812 -2.097656 2 -2.203125 C 1.875 -2.304688 1.691406 -2.359375 1.453125 -2.359375 L 0.796875 -2.359375 L 0.796875 -1.15625 Z M 1.453125 -1.15625 "/></g></g></g><g fill="#4f4c4c" fill-opacity="1"><g transform="translate(58.828064, 48.593107)"><g/></g></g><g fill="#4f4c4c" fill-opacity="1"><g transform="translate(60.468381, 48.593107)"><g><path d="M 2.359375 -0.328125 L 2.359375 0 L 0.40625 0 L 0.40625 -2.703125 L 2.3125 -2.703125 L 2.3125 -2.359375 L 0.796875 -2.359375 L 0.796875 -1.53125 L 2.140625 -1.53125 L 2.140625 -1.203125 L 0.796875 -1.203125 L 0.796875 -0.328125 Z M 2.359375 -0.328125 "/></g></g></g><g fill="#4f4c4c" fill-opacity="1"><g transform="translate(63.656385, 48.593107)"><g><path d="M 2.109375 0 L 1.296875 -1.109375 L 0.5 0 L 0.046875 0 L 1.0625 -1.390625 L 0.109375 -2.703125 L 0.546875 -2.703125 L 1.3125 -1.65625 L 2.0625 -2.703125 L 2.484375 -2.703125 L 1.53125 -1.390625 L 2.546875 0 Z M 2.109375 0 "/></g></g></g><g fill="#4f4c4c" fill-opacity="1"><g transform="translate(66.855967, 48.593107)"><g><path d="M 1.453125 -2.703125 C 1.804688 -2.703125 2.082031 -2.617188 2.28125 -2.453125 C 2.476562 -2.285156 2.578125 -2.054688 2.578125 -1.765625 C 2.578125 -1.460938 2.476562 -1.226562 2.28125 -1.0625 C 2.082031 -0.894531 1.804688 -0.8125 1.453125 -0.8125 L 0.796875 -0.8125 L 0.796875 0 L 0.40625 0 L 0.40625 -2.703125 Z M 1.453125 -1.15625 C 1.691406 -1.15625 1.875 -1.207031 2 -1.3125 C 2.132812 -1.414062 2.203125 -1.566406 2.203125 -1.765625 C 2.203125 -1.953125 2.132812 -2.097656 2 -2.203125 C 1.875 -2.304688 1.691406 -2.359375 1.453125 -2.359375 L 0.796875 -2.359375 L 0.796875 -1.15625 Z M 1.453125 -1.15625 "/></g></g></g><g fill="#4f4c4c" fill-opacity="1"><g transform="translate(70.244671, 48.593107)"><g><path d="M 2.359375 -0.328125 L 2.359375 0 L 0.40625 0 L 0.40625 -2.703125 L 2.3125 -2.703125 L 2.3125 -2.359375 L 0.796875 -2.359375 L 0.796875 -1.53125 L 2.140625 -1.53125 L 2.140625 -1.203125 L 0.796875 -1.203125 L 0.796875 -0.328125 Z M 2.359375 -0.328125 "/></g></g></g><g fill="#4f4c4c" fill-opacity="1"><g transform="translate(73.432676, 48.593107)"><g><path d="M 2.21875 0 L 1.625 -0.828125 C 1.550781 -0.828125 1.492188 -0.828125 1.453125 -0.828125 L 0.796875 -0.828125 L 0.796875 0 L 0.40625 0 L 0.40625 -2.703125 L 1.453125 -2.703125 C 1.804688 -2.703125 2.082031 -2.617188 2.28125 -2.453125 C 2.476562 -2.285156 2.578125 -2.054688 2.578125 -1.765625 C 2.578125 -1.554688 2.523438 -1.375 2.421875 -1.21875 C 2.328125 -1.070312 2.179688 -0.96875 1.984375 -0.90625 L 2.625 0 Z M 1.453125 -1.15625 C 1.691406 -1.15625 1.875 -1.207031 2 -1.3125 C 2.132812 -1.414062 2.203125 -1.566406 2.203125 -1.765625 C 2.203125 -1.953125 2.132812 -2.097656 2 -2.203125 C 1.875 -2.304688 1.691406 -2.359375 1.453125 -2.359375 L 0.796875 -2.359375 L 0.796875 -1.15625 Z M 1.453125 -1.15625 "/></g></g></g><g fill="#4f4c4c" fill-opacity="1"><g transform="translate(76.840676, 48.593107)"><g><path d="M 0.9375 -2.359375 L 0.015625 -2.359375 L 0.015625 -2.703125 L 2.25 -2.703125 L 2.25 -2.359375 L 1.328125 -2.359375 L 1.328125 0 L 0.9375 0 Z M 0.9375 -2.359375 "/></g></g></g><g fill="#4f4c4c" fill-opacity="1"><g transform="translate(79.708338, 48.593107)"><g><path d="M 0.40625 -2.703125 L 0.796875 -2.703125 L 0.796875 0 L 0.40625 0 Z M 0.40625 -2.703125 "/></g></g></g><g fill="#4f4c4c" fill-opacity="1"><g transform="translate(81.506898, 48.593107)"><g><path d="M 1.1875 0.03125 C 0.988281 0.03125 0.796875 0 0.609375 -0.0625 C 0.421875 -0.125 0.269531 -0.207031 0.15625 -0.3125 L 0.296875 -0.609375 C 0.398438 -0.515625 0.53125 -0.4375 0.6875 -0.375 C 0.851562 -0.320312 1.019531 -0.296875 1.1875 -0.296875 C 1.414062 -0.296875 1.582031 -0.332031 1.6875 -0.40625 C 1.800781 -0.488281 1.859375 -0.59375 1.859375 -0.71875 C 1.859375 -0.8125 1.828125 -0.882812 1.765625 -0.9375 C 1.703125 -1 1.625 -1.046875 1.53125 -1.078125 C 1.445312 -1.109375 1.328125 -1.140625 1.171875 -1.171875 C 0.960938 -1.222656 0.796875 -1.269531 0.671875 -1.3125 C 0.546875 -1.363281 0.4375 -1.441406 0.34375 -1.546875 C 0.257812 -1.648438 0.21875 -1.785156 0.21875 -1.953125 C 0.21875 -2.097656 0.253906 -2.226562 0.328125 -2.34375 C 0.410156 -2.46875 0.53125 -2.5625 0.6875 -2.625 C 0.84375 -2.695312 1.035156 -2.734375 1.265625 -2.734375 C 1.421875 -2.734375 1.570312 -2.710938 1.71875 -2.671875 C 1.875 -2.628906 2.007812 -2.570312 2.125 -2.5 L 2 -2.1875 C 1.882812 -2.257812 1.757812 -2.3125 1.625 -2.34375 C 1.5 -2.382812 1.378906 -2.40625 1.265625 -2.40625 C 1.046875 -2.40625 0.878906 -2.363281 0.765625 -2.28125 C 0.660156 -2.207031 0.609375 -2.101562 0.609375 -1.96875 C 0.609375 -1.882812 0.632812 -1.8125 0.6875 -1.75 C 0.75 -1.6875 0.828125 -1.640625 0.921875 -1.609375 C 1.015625 -1.578125 1.140625 -1.546875 1.296875 -1.515625 C 1.503906 -1.460938 1.664062 -1.410156 1.78125 -1.359375 C 1.90625 -1.316406 2.007812 -1.242188 2.09375 -1.140625 C 2.1875 -1.035156 2.234375 -0.898438 2.234375 -0.734375 C 2.234375 -0.597656 2.191406 -0.46875 2.109375 -0.34375 C 2.035156 -0.226562 1.921875 -0.132812 1.765625 -0.0625 C 1.609375 0 1.414062 0.03125 1.1875 0.03125 Z M 1.1875 0.03125 "/></g></g></g><g fill="#4f4c4c" fill-opacity="1"><g transform="translate(84.505785, 48.593107)"><g><path d="M 2.359375 -0.328125 L 2.359375 0 L 0.40625 0 L 0.40625 -2.703125 L 2.3125 -2.703125 L 2.3125 -2.359375 L 0.796875 -2.359375 L 0.796875 -1.53125 L 2.140625 -1.53125 L 2.140625 -1.203125 L 0.796875 -1.203125 L 0.796875 -0.328125 Z M 2.359375 -0.328125 "/></g></g></g><g fill="#4f4c4c" fill-opacity="1"><g transform="translate(87.69379, 48.593107)"><g/></g></g><g fill="#4f4c4c" fill-opacity="1"><g transform="translate(89.334104, 48.593107)"><g><path d="M 1.4375 -0.9375 L 1.4375 0 L 1.0625 0 L 1.0625 -0.9375 L -0.015625 -2.703125 L 0.390625 -2.703125 L 1.265625 -1.28125 L 2.125 -2.703125 L 2.515625 -2.703125 Z M 1.4375 -0.9375 "/></g></g></g><g fill="#4f4c4c" fill-opacity="1"><g transform="translate(92.433337, 48.593107)"><g><path d="M 1.625 0.03125 C 1.351562 0.03125 1.109375 -0.0234375 0.890625 -0.140625 C 0.671875 -0.265625 0.5 -0.429688 0.375 -0.640625 C 0.25 -0.859375 0.1875 -1.09375 0.1875 -1.34375 C 0.1875 -1.601562 0.25 -1.835938 0.375 -2.046875 C 0.5 -2.265625 0.671875 -2.429688 0.890625 -2.546875 C 1.109375 -2.671875 1.351562 -2.734375 1.625 -2.734375 C 1.894531 -2.734375 2.140625 -2.671875 2.359375 -2.546875 C 2.578125 -2.429688 2.75 -2.269531 2.875 -2.0625 C 3 -1.851562 3.0625 -1.613281 3.0625 -1.34375 C 3.0625 -1.082031 3 -0.847656 2.875 -0.640625 C 2.75 -0.429688 2.578125 -0.265625 2.359375 -0.140625 C 2.140625 -0.0234375 1.894531 0.03125 1.625 0.03125 Z M 1.625 -0.3125 C 1.820312 -0.3125 2 -0.351562 2.15625 -0.4375 C 2.3125 -0.53125 2.4375 -0.65625 2.53125 -0.8125 C 2.625 -0.976562 2.671875 -1.15625 2.671875 -1.34375 C 2.671875 -1.539062 2.625 -1.71875 2.53125 -1.875 C 2.4375 -2.039062 2.3125 -2.164062 2.15625 -2.25 C 2 -2.34375 1.820312 -2.390625 1.625 -2.390625 C 1.425781 -2.390625 1.242188 -2.34375 1.078125 -2.25 C 0.921875 -2.164062 0.796875 -2.039062 0.703125 -1.875 C 0.617188 -1.71875 0.578125 -1.539062 0.578125 -1.34375 C 0.578125 -1.15625 0.617188 -0.976562 0.703125 -0.8125 C 0.796875 -0.65625 0.921875 -0.53125 1.078125 -0.4375 C 1.242188 -0.351562 1.425781 -0.3125 1.625 -0.3125 Z M 1.625 -0.3125 "/></g></g></g><g fill="#4f4c4c" fill-opacity="1"><g transform="translate(96.27747, 48.593107)"><g><path d="M 1.53125 0.03125 C 1.164062 0.03125 0.878906 -0.0703125 0.671875 -0.28125 C 0.472656 -0.488281 0.375 -0.785156 0.375 -1.171875 L 0.375 -2.703125 L 0.765625 -2.703125 L 0.765625 -1.1875 C 0.765625 -0.601562 1.019531 -0.3125 1.53125 -0.3125 C 1.78125 -0.3125 1.96875 -0.378906 2.09375 -0.515625 C 2.226562 -0.660156 2.296875 -0.882812 2.296875 -1.1875 L 2.296875 -2.703125 L 2.671875 -2.703125 L 2.671875 -1.171875 C 2.671875 -0.773438 2.566406 -0.472656 2.359375 -0.265625 C 2.160156 -0.0664062 1.882812 0.03125 1.53125 0.03125 Z M 1.53125 0.03125 "/></g></g></g><g fill="#4f4c4c" fill-opacity="1"><g transform="translate(99.932481, 48.593107)"><g><path d="M 2.21875 0 L 1.625 -0.828125 C 1.550781 -0.828125 1.492188 -0.828125 1.453125 -0.828125 L 0.796875 -0.828125 L 0.796875 0 L 0.40625 0 L 0.40625 -2.703125 L 1.453125 -2.703125 C 1.804688 -2.703125 2.082031 -2.617188 2.28125 -2.453125 C 2.476562 -2.285156 2.578125 -2.054688 2.578125 -1.765625 C 2.578125 -1.554688 2.523438 -1.375 2.421875 -1.21875 C 2.328125 -1.070312 2.179688 -0.96875 1.984375 -0.90625 L 2.625 0 Z M 1.453125 -1.15625 C 1.691406 -1.15625 1.875 -1.207031 2 -1.3125 C 2.132812 -1.414062 2.203125 -1.566406 2.203125 -1.765625 C 2.203125 -1.953125 2.132812 -2.097656 2 -2.203125 C 1.875 -2.304688 1.691406 -2.359375 1.453125 -2.359375 L 0.796875 -2.359375 L 0.796875 -1.15625 Z M 1.453125 -1.15625 "/></g></g></g><g fill="#4f4c4c" fill-opacity="1"><g transform="translate(103.340479, 48.593107)"><g/></g></g><g fill="#4f4c4c" fill-opacity="1"><g transform="translate(104.980794, 48.593107)"><g><path d="M 0.40625 -2.703125 L 0.796875 -2.703125 L 0.796875 -0.328125 L 2.25 -0.328125 L 2.25 0 L 0.40625 0 Z M 0.40625 -2.703125 "/></g></g></g><g fill="#4f4c4c" fill-opacity="1"><g transform="translate(107.875469, 48.593107)"><g><path d="M 0.40625 -2.703125 L 0.796875 -2.703125 L 0.796875 0 L 0.40625 0 Z M 0.40625 -2.703125 "/></g></g></g><g fill="#4f4c4c" fill-opacity="1"><g transform="translate(109.674027, 48.593107)"><g><path d="M 0.796875 -2.359375 L 0.796875 -1.421875 L 2.140625 -1.421875 L 2.140625 -1.09375 L 0.796875 -1.09375 L 0.796875 0 L 0.40625 0 L 0.40625 -2.703125 L 2.3125 -2.703125 L 2.3125 -2.359375 Z M 0.796875 -2.359375 "/></g></g></g><g fill="#4f4c4c" fill-opacity="1"><g transform="translate(112.726945, 48.593107)"><g><path d="M 2.359375 -0.328125 L 2.359375 0 L 0.40625 0 L 0.40625 -2.703125 L 2.3125 -2.703125 L 2.3125 -2.359375 L 0.796875 -2.359375 L 0.796875 -1.53125 L 2.140625 -1.53125 L 2.140625 -1.203125 L 0.796875 -1.203125 L 0.796875 -0.328125 Z M 2.359375 -0.328125 "/></g></g></g><g fill="#4f4c4c" fill-opacity="1"><g transform="translate(115.914947, 48.593107)"><g><path d="M 1.1875 0.03125 C 0.988281 0.03125 0.796875 0 0.609375 -0.0625 C 0.421875 -0.125 0.269531 -0.207031 0.15625 -0.3125 L 0.296875 -0.609375 C 0.398438 -0.515625 0.53125 -0.4375 0.6875 -0.375 C 0.851562 -0.320312 1.019531 -0.296875 1.1875 -0.296875 C 1.414062 -0.296875 1.582031 -0.332031 1.6875 -0.40625 C 1.800781 -0.488281 1.859375 -0.59375 1.859375 -0.71875 C 1.859375 -0.8125 1.828125 -0.882812 1.765625 -0.9375 C 1.703125 -1 1.625 -1.046875 1.53125 -1.078125 C 1.445312 -1.109375 1.328125 -1.140625 1.171875 -1.171875 C 0.960938 -1.222656 0.796875 -1.269531 0.671875 -1.3125 C 0.546875 -1.363281 0.4375 -1.441406 0.34375 -1.546875 C 0.257812 -1.648438 0.21875 -1.785156 0.21875 -1.953125 C 0.21875 -2.097656 0.253906 -2.226562 0.328125 -2.34375 C 0.410156 -2.46875 0.53125 -2.5625 0.6875 -2.625 C 0.84375 -2.695312 1.035156 -2.734375 1.265625 -2.734375 C 1.421875 -2.734375 1.570312 -2.710938 1.71875 -2.671875 C 1.875 -2.628906 2.007812 -2.570312 2.125 -2.5 L 2 -2.1875 C 1.882812 -2.257812 1.757812 -2.3125 1.625 -2.34375 C 1.5 -2.382812 1.378906 -2.40625 1.265625 -2.40625 C 1.046875 -2.40625 0.878906 -2.363281 0.765625 -2.28125 C 0.660156 -2.207031 0.609375 -2.101562 0.609375 -1.96875 C 0.609375 -1.882812 0.632812 -1.8125 0.6875 -1.75 C 0.75 -1.6875 0.828125 -1.640625 0.921875 -1.609375 C 1.015625 -1.578125 1.140625 -1.546875 1.296875 -1.515625 C 1.503906 -1.460938 1.664062 -1.410156 1.78125 -1.359375 C 1.90625 -1.316406 2.007812 -1.242188 2.09375 -1.140625 C 2.1875 -1.035156 2.234375 -0.898438 2.234375 -0.734375 C 2.234375 -0.597656 2.191406 -0.46875 2.109375 -0.34375 C 2.035156 -0.226562 1.921875 -0.132812 1.765625 -0.0625 C 1.609375 0 1.414062 0.03125 1.1875 0.03125 Z M 1.1875 0.03125 "/></g></g></g><g fill="#4f4c4c" fill-opacity="1"><g transform="translate(118.913833, 48.593107)"><g><path d="M 0.9375 -2.359375 L 0.015625 -2.359375 L 0.015625 -2.703125 L 2.25 -2.703125 L 2.25 -2.359375 L 1.328125 -2.359375 L 1.328125 0 L 0.9375 0 Z M 0.9375 -2.359375 "/></g></g></g><g fill="#4f4c4c" fill-opacity="1"><g transform="translate(121.781491, 48.593107)"><g><path d="M 1.4375 -0.9375 L 1.4375 0 L 1.0625 0 L 1.0625 -0.9375 L -0.015625 -2.703125 L 0.390625 -2.703125 L 1.265625 -1.28125 L 2.125 -2.703125 L 2.515625 -2.703125 Z M 1.4375 -0.9375 "/></g></g></g><g fill="#4f4c4c" fill-opacity="1"><g transform="translate(124.880724, 48.593107)"><g><path d="M 0.40625 -2.703125 L 0.796875 -2.703125 L 0.796875 -0.328125 L 2.25 -0.328125 L 2.25 0 L 0.40625 0 Z M 0.40625 -2.703125 "/></g></g></g><g fill="#4f4c4c" fill-opacity="1"><g transform="translate(127.775399, 48.593107)"><g><path d="M 2.359375 -0.328125 L 2.359375 0 L 0.40625 0 L 0.40625 -2.703125 L 2.3125 -2.703125 L 2.3125 -2.359375 L 0.796875 -2.359375 L 0.796875 -1.53125 L 2.140625 -1.53125 L 2.140625 -1.203125 L 0.796875 -1.203125 L 0.796875 -0.328125 Z M 2.359375 -0.328125 "/></g></g></g></svg>